<svg width="132" height="24" viewBox="0 0 132 24" fill="none" xmlns="http://www.w3.org/2000/svg">
<path d="M0.992 18V1.2H7.664C8.512 1.2 9.28 1.336 9.968 1.608C10.656 1.864 11.248 2.232 11.744 2.712C12.256 3.192 12.648 3.768 12.92 4.44C13.192 5.112 13.328 5.864 13.328 6.696C13.328 7.528 13.192 8.28 12.92 8.952C12.648 9.624 12.256 10.2 11.744 10.68C11.248 11.16 10.656 11.536 9.968 11.808C9.28 12.064 8.512 12.192 7.664 12.192H3.848V18H0.992ZM3.848 9.552H7.496C8.376 9.552 9.072 9.288 9.584 8.76C10.112 8.232 10.376 7.544 10.376 6.696C10.376 5.848 10.112 5.16 9.584 4.632C9.072 4.104 8.376 3.84 7.496 3.84H3.848V9.552ZM15.8413 6H18.5293V18H15.8413V6ZM22.6093 5.856V8.328H21.9373C21.4093 8.328 20.9373 8.4 20.5213 8.544C20.1053 8.672 19.7453 8.88 19.4413 9.168C19.1533 9.456 18.9293 9.832 18.7693 10.296C18.6093 10.76 18.5293 11.32 18.5293 11.976H17.8092C17.8413 9.896 18.1853 8.36 18.8413 7.368C19.4973 6.36 20.5053 5.856 21.8653 5.856H22.6093ZM23.9572 14.664C23.9572 13.496 24.4132 12.56 25.3252 11.856C26.2372 11.152 27.5892 10.768 29.3812 10.704L33.1732 10.56V12.528L29.8132 12.672C28.6612 12.72 27.8372 12.912 27.3412 13.248C26.8612 13.584 26.6212 14 26.6212 14.496C26.6212 14.992 26.8052 15.384 27.1732 15.672C27.5572 15.96 28.0692 16.104 28.7092 16.104C29.2052 16.104 29.6532 16.024 30.0532 15.864C30.4692 15.688 30.8292 15.456 31.1332 15.168C31.4372 14.864 31.6692 14.512 31.8292 14.112C32.0052 13.696 32.0932 13.248 32.0932 12.768L32.9092 13.032C32.8932 13.848 32.7732 14.584 32.5492 15.24C32.3252 15.896 31.9972 16.456 31.5652 16.92C31.1492 17.384 30.6452 17.736 30.0532 17.976C29.4612 18.216 28.8052 18.336 28.0852 18.336C27.4292 18.336 26.8452 18.24 26.3332 18.048C25.8212 17.872 25.3892 17.624 25.0372 17.304C24.7012 16.968 24.4372 16.576 24.2452 16.128C24.0532 15.68 23.9572 15.192 23.9572 14.664ZM32.0932 18V10.464C32.0932 9.696 31.8532 9.08 31.3732 8.616C30.8932 8.136 30.2292 7.896 29.3812 7.896C28.7092 7.896 28.1172 8.056 27.6052 8.376C27.1092 8.696 26.7172 9.152 26.4292 9.744L24.2932 8.688C24.7412 7.728 25.3972 6.984 26.2612 6.456C27.1412 5.928 28.2132 5.664 29.4772 5.664C30.2772 5.664 30.9972 5.776 31.6372 6C32.2932 6.224 32.8452 6.552 33.2932 6.984C33.7412 7.4 34.0852 7.904 34.3252 8.496C34.5812 9.088 34.7092 9.76 34.7092 10.512V18H32.0932ZM39.2896 12.6L40.8976 13.56C40.6576 13.656 40.4656 13.792 40.3216 13.968C40.1936 14.128 40.1296 14.328 40.1296 14.568C40.1296 14.92 40.3376 15.192 40.7536 15.384C41.1696 15.56 41.8976 15.656 42.9376 15.672C44.8736 15.688 46.3456 15.992 47.3536 16.584C48.3616 17.176 48.8656 18.04 48.8656 19.176C48.8656 20.408 48.2896 21.376 47.1376 22.08C45.9856 22.784 44.4176 23.136 42.4336 23.136C40.6096 23.136 39.2096 22.84 38.2336 22.248C37.2576 21.672 36.7696 20.84 36.7696 19.752C36.7696 19.016 37.0016 18.392 37.4656 17.88C37.9456 17.352 38.6096 16.984 39.4576 16.776L39.4336 17.088C38.9376 16.832 38.5616 16.52 38.3056 16.152C38.0496 15.784 37.9216 15.368 37.9216 14.904C37.9216 14.472 38.0336 14.072 38.2576 13.704C38.4976 13.32 38.8416 12.952 39.2896 12.6ZM37.4896 9.816C37.4896 9.208 37.6096 8.648 37.8496 8.136C38.0896 7.624 38.4256 7.192 38.8576 6.84C39.3056 6.472 39.8416 6.184 40.4656 5.976C41.0896 5.768 41.7856 5.664 42.5536 5.664C43.3216 5.664 44.0176 5.768 44.6416 5.976C45.2816 6.184 45.8176 6.472 46.2496 6.84C46.6976 7.192 47.0336 7.624 47.2576 8.136C47.4976 8.648 47.6176 9.208 47.6176 9.816C47.6176 10.424 47.4976 10.984 47.2576 11.496C47.0176 11.992 46.6736 12.424 46.2256 12.792C45.7936 13.16 45.2656 13.448 44.6416 13.656C44.0176 13.864 43.3216 13.968 42.5536 13.968C41.8656 13.968 41.2096 13.88 40.5856 13.704C39.9776 13.528 39.4416 13.264 38.9776 12.912C38.5136 12.544 38.1456 12.104 37.8736 11.592C37.6176 11.08 37.4896 10.488 37.4896 9.816ZM39.9856 9.816C39.9856 10.408 40.2176 10.888 40.6816 11.256C41.1456 11.608 41.7696 11.784 42.5536 11.784C43.3376 11.784 43.9616 11.608 44.4256 11.256C44.8896 10.888 45.1216 10.408 45.1216 9.816C45.1216 9.224 44.8896 8.752 44.4256 8.4C43.9616 8.032 43.3376 7.848 42.5536 7.848C41.7696 7.848 41.1456 8.032 40.6816 8.4C40.2176 8.752 39.9856 9.224 39.9856 9.816ZM39.3136 19.416C39.3136 19.88 39.5856 20.24 40.1296 20.496C40.6896 20.752 41.4736 20.88 42.4816 20.88C43.5696 20.88 44.4416 20.728 45.0976 20.424C45.7696 20.136 46.1056 19.752 46.1056 19.272C46.1056 18.824 45.8176 18.48 45.2416 18.24C44.6656 18.016 43.8496 17.904 42.7936 17.904C41.6736 17.904 40.8096 18.032 40.2016 18.288C39.6096 18.56 39.3136 18.936 39.3136 19.416ZM46.6096 7.824L45.1456 6.6L47.2096 4.44L48.6736 5.856L46.6096 7.824ZM49.9494 14.664C49.9494 13.496 50.4054 12.56 51.3174 11.856C52.2294 11.152 53.5814 10.768 55.3734 10.704L59.1654 10.56V12.528L55.8054 12.672C54.6534 12.72 53.8294 12.912 53.3334 13.248C52.8534 13.584 52.6134 14 52.6134 14.496C52.6134 14.992 52.7974 15.384 53.1654 15.672C53.5494 15.96 54.0614 16.104 54.7014 16.104C55.1974 16.104 55.6454 16.024 56.0454 15.864C56.4614 15.688 56.8214 15.456 57.1254 15.168C57.4294 14.864 57.6614 14.512 57.8214 14.112C57.9974 13.696 58.0854 13.248 58.0854 12.768L58.9014 13.032C58.8854 13.848 58.7654 14.584 58.5414 15.24C58.3174 15.896 57.9894 16.456 57.5574 16.92C57.1414 17.384 56.6374 17.736 56.0454 17.976C55.4534 18.216 54.7974 18.336 54.0774 18.336C53.4214 18.336 52.8374 18.24 52.3254 18.048C51.8134 17.872 51.3814 17.624 51.0294 17.304C50.6934 16.968 50.4294 16.576 50.2374 16.128C50.0454 15.68 49.9494 15.192 49.9494 14.664ZM58.0854 18V10.464C58.0854 9.696 57.8454 9.08 57.3654 8.616C56.8854 8.136 56.2214 7.896 55.3734 7.896C54.7014 7.896 54.1094 8.056 53.5974 8.376C53.1014 8.696 52.7094 9.152 52.4214 9.744L50.2854 8.688C50.7334 7.728 51.3894 6.984 52.2534 6.456C53.1334 5.928 54.2054 5.664 55.4694 5.664C56.2694 5.664 56.9894 5.776 57.6294 6C58.2854 6.224 58.8374 6.552 59.2854 6.984C59.7334 7.4 60.0774 7.904 60.3174 8.496C60.5734 9.088 60.7014 9.76 60.7014 10.512V18H58.0854ZM62.3834 8.448V6H70.3034V8.448H62.3834ZM67.1114 13.056C67.1114 13.952 67.3034 14.6 67.6874 15C68.0874 15.384 68.7034 15.576 69.5354 15.576H70.3994V18.144H69.1994C67.5834 18.144 66.3834 17.744 65.5994 16.944C64.8154 16.144 64.4234 14.912 64.4234 13.248V2.64H67.1114V13.056ZM72.6538 6H75.3418V18H72.6538V6ZM72.3658 2.112C72.3658 1.632 72.5258 1.24 72.8458 0.935999C73.1658 0.616 73.5578 0.456 74.0218 0.456C74.4858 0.456 74.8698 0.616 75.1738 0.935999C75.4938 1.24 75.6538 1.632 75.6538 2.112C75.6538 2.576 75.4938 2.968 75.1738 3.288C74.8698 3.592 74.4858 3.744 74.0218 3.744C73.5578 3.744 73.1658 3.592 72.8458 3.288C72.5258 2.968 72.3658 2.576 72.3658 2.112Z" fill="#2B2B2B"/>
<path d="M78.2497 16.44C78.2497 15.944 78.4177 15.536 78.7537 15.216C79.0897 14.88 79.4977 14.712 79.9777 14.712C80.4577 14.712 80.8657 14.88 81.2017 15.216C81.5377 15.536 81.7057 15.944 81.7057 16.44C81.7057 16.92 81.5377 17.328 81.2017 17.664C80.8657 17.984 80.4577 18.144 79.9777 18.144C79.4977 18.144 79.0897 17.984 78.7537 17.664C78.4177 17.328 78.2497 16.92 78.2497 16.44ZM90.272 18.336C89.344 18.336 88.488 18.184 87.704 17.88C86.936 17.56 86.272 17.12 85.712 16.56C85.168 16 84.736 15.336 84.416 14.568C84.096 13.784 83.936 12.928 83.936 12C83.936 11.072 84.096 10.224 84.416 9.456C84.736 8.672 85.168 8 85.712 7.44C86.272 6.88 86.936 6.448 87.704 6.144C88.488 5.824 89.344 5.664 90.272 5.664C91.552 5.664 92.664 5.96 93.608 6.552C94.552 7.144 95.264 7.984 95.744 9.072L93.392 10.296C93.088 9.608 92.664 9.088 92.12 8.736C91.592 8.368 90.968 8.184 90.248 8.184C89.72 8.184 89.24 8.28 88.808 8.472C88.376 8.664 88 8.936 87.68 9.288C87.376 9.624 87.136 10.024 86.96 10.488C86.8 10.936 86.72 11.44 86.72 12C86.72 12.544 86.8 13.048 86.96 13.512C87.136 13.976 87.376 14.384 87.68 14.736C88 15.072 88.376 15.336 88.808 15.528C89.24 15.72 89.72 15.816 90.248 15.816C90.968 15.816 91.592 15.64 92.12 15.288C92.664 14.92 93.088 14.392 93.392 13.704L95.744 14.928C95.264 16.016 94.552 16.856 93.608 17.448C92.664 18.04 91.552 18.336 90.272 18.336ZM97.3869 14.664C97.3869 13.496 97.8429 12.56 98.7549 11.856C99.6669 11.152 101.019 10.768 102.811 10.704L106.603 10.56V12.528L103.243 12.672C102.091 12.72 101.267 12.912 100.771 13.248C100.291 13.584 100.051 14 100.051 14.496C100.051 14.992 100.235 15.384 100.603 15.672C100.987 15.96 101.499 16.104 102.139 16.104C102.635 16.104 103.083 16.024 103.483 15.864C103.899 15.688 104.259 15.456 104.563 15.168C104.867 14.864 105.099 14.512 105.259 14.112C105.435 13.696 105.523 13.248 105.523 12.768L106.339 13.032C106.323 13.848 106.203 14.584 105.979 15.24C105.755 15.896 105.427 16.456 104.995 16.92C104.579 17.384 104.075 17.736 103.483 17.976C102.891 18.216 102.235 18.336 101.515 18.336C100.859 18.336 100.275 18.24 99.7629 18.048C99.2509 17.872 98.8189 17.624 98.4669 17.304C98.1309 16.968 97.8669 16.576 97.6749 16.128C97.4829 15.68 97.3869 15.192 97.3869 14.664ZM105.523 18V10.464C105.523 9.696 105.283 9.08 104.803 8.616C104.323 8.136 103.659 7.896 102.811 7.896C102.139 7.896 101.547 8.056 101.035 8.376C100.539 8.696 100.147 9.152 99.8589 9.744L97.7229 8.688C98.1709 7.728 98.8269 6.984 99.6909 6.456C100.571 5.928 101.643 5.664 102.907 5.664C103.707 5.664 104.427 5.776 105.067 6C105.723 6.224 106.275 6.552 106.723 6.984C107.171 7.4 107.515 7.904 107.755 8.496C108.011 9.088 108.139 9.76 108.139 10.512V18H105.523ZM111.255 6H113.943V18H111.255V6ZM118.023 5.856V8.328H117.351C116.823 8.328 116.351 8.4 115.935 8.544C115.519 8.672 115.159 8.88 114.855 9.168C114.567 9.456 114.343 9.832 114.183 10.296C114.023 10.76 113.943 11.32 113.943 11.976H113.223C113.255 9.896 113.599 8.36 114.255 7.368C114.911 6.36 115.919 5.856 117.279 5.856H118.023ZM125.875 18.336C124.931 18.336 124.067 18.184 123.283 17.88C122.499 17.56 121.819 17.12 121.243 16.56C120.683 16 120.243 15.328 119.923 14.544C119.619 13.76 119.467 12.904 119.467 11.976C119.467 11.048 119.627 10.2 119.947 9.432C120.267 8.648 120.699 7.984 121.243 7.44C121.803 6.88 122.467 6.448 123.235 6.144C124.019 5.824 124.867 5.664 125.779 5.664C126.659 5.664 127.451 5.808 128.155 6.096C128.875 6.384 129.491 6.792 130.003 7.32C130.515 7.832 130.915 8.448 131.203 9.168C131.491 9.888 131.635 10.688 131.635 11.568C131.635 11.744 131.627 11.936 131.611 12.144C131.595 12.336 131.571 12.544 131.539 12.768H121.723V10.704H129.307L128.923 11.04C128.923 10.576 128.835 10.16 128.659 9.792C128.499 9.408 128.275 9.088 127.987 8.832C127.715 8.56 127.387 8.352 127.003 8.208C126.619 8.064 126.195 7.992 125.731 7.992C125.187 7.992 124.691 8.088 124.243 8.28C123.795 8.472 123.411 8.744 123.091 9.096C122.787 9.448 122.547 9.864 122.371 10.344C122.195 10.824 122.107 11.36 122.107 11.952C122.107 12.528 122.195 13.064 122.371 13.56C122.563 14.056 122.819 14.48 123.139 14.832C123.475 15.168 123.875 15.44 124.339 15.648C124.803 15.84 125.323 15.936 125.899 15.936C126.603 15.936 127.235 15.792 127.795 15.504C128.355 15.216 128.803 14.784 129.139 14.208L131.083 15.744C130.491 16.592 129.747 17.24 128.851 17.688C127.971 18.12 126.979 18.336 125.875 18.336Z" fill="#57C192"/>
</svg>
